<?xml version="1.0" encoding="UTF-8"?>
<svg width="183.76mm" height="59.413mm" version="1.1" viewBox="0 0 183.76 59.413" xmlns="http://www.w3.org/2000/svg" xmlns:cc="http://creativecommons.org/ns#" xmlns:dc="http://purl.org/dc/elements/1.1/" xmlns:rdf="http://www.w3.org/1999/02/22-rdf-syntax-ns#">
<metadata>
<rdf:RDF>
<cc:Work rdf:about="">
<dc:format>image/svg+xml</dc:format>
<dc:type rdf:resource="http://purl.org/dc/dcmitype/StillImage"/>
<dc:title/>
</cc:Work>
</rdf:RDF>
</metadata>
<g transform="translate(-56.622)">
<text fill="#000000" font-family="sans-serif" font-size="10.583px" style="line-height:1.25;shape-inside:url(#rect839);white-space:pre" xml:space="preserve"/>
<text fill="#000000" font-family="sans-serif" font-size="10.583px" style="line-height:1.25;shape-inside:url(#rect935);white-space:pre" xml:space="preserve"/>
<path d="m74.199 0v11.43c-1.8965-1.5917-3.9964-2.3875-6.2994-2.3875-3.1496 0-5.8251 1.1516-8.0264 3.4546-2.1675 2.2691-3.2515 5.0289-3.2515 8.2801 0 3.2173 1.1349 5.9777 3.4039 8.2806 2.3029 2.3029 5.0628 3.4546 8.2801 3.4546 3.2512 0 6.0116-1.1516 8.2806-3.4546 2.3029-2.3029 3.4546-5.0633 3.4546-8.2806v-20.777zm56.534 9.093c-3.4883-2e-7 -6.418 1.1176-8.7886 3.3528-2.3368 2.2352-3.5052 4.9956-3.5052 8.2806s1.2193 6.0454 3.6577 8.2806 5.4189 3.3528 8.9411 3.3528c4.064 0 7.5692-1.7272 10.516-5.1816l-4.5723-3.099c-1.6595 2.0997-3.6404 3.1497-5.9433 3.1497-1.8288 0-3.4208-0.62641-4.7754-1.8795-1.3547-1.2869-2.0319-2.828-2.0319-4.623s0.6264-3.3187 1.8795-4.5718c1.2869-1.2869 2.828-1.9306 4.623-1.9306 2.3368 0 4.2842 1.1176 5.842 3.3528l4.6736-3.3021c-2.9464-3.4544-6.4516-5.1816-10.516-5.1816zm-40.974 0.45734v5.2322c1.4901 0 2.6753 0.45761 3.5559 1.372 0.9144 0.88053 1.3715 2.1842 1.3715 3.9114v1.8149c-0.1275-0.15124-0.26211-0.29932-0.40618-0.44338-1.2531-1.2531-2.7601-1.8795-4.5212-1.8795-1.7611 0-3.2681 0.6264-4.5212 1.8795-1.2531 1.2531-1.88 2.7774-1.88 4.5723 0 1.7611 0.62692 3.2681 1.88 4.5212s2.7601 1.8795 4.5212 1.8795c1.7611 0 3.2681-0.6264 4.5212-1.8795 0.14405-0.14405 0.35553-0.51832 0.35553-0.51832l5.7914 1.8898v-12.548c0-2.7432-0.98232-5.0632-2.9466-6.9598-1.9304-1.8965-4.5042-2.8448-7.7215-2.8448zm26.08 0c-3.2173 0-5.8084 0.94825-7.7727 2.8448-1.9304 1.8965-2.8954 4.2166-2.8954 6.9598v12.548l5.7909-1.8898v-9.9467c0-1.7272 0.44031-3.0309 1.3208-3.9114 0.88053-0.9144 2.0662-1.372 3.5564-1.372zm29.019 0v13.107c0 2.6416 0.9991 4.9103 2.9972 6.8068 1.9981 1.8965 4.5383 2.8448 7.6202 2.8448 0.88054 0 1.7947-0.20287 2.743-0.60927 0.98213-0.44027 1.6767-0.9482 2.0831-1.5239v0.91416c0.0339 1.7949-0.57576 3.3187-1.8288 4.5718-1.2192 1.2531-2.7262 1.88-4.5212 1.88-2.3707 0-4.4029-1.0667-6.0963-3.2003l-4.5212 3.1492c2.8787 3.4544 6.418 5.1816 10.617 5.1816 3.6237 0 6.5697-1.1176 8.8387-3.3528 2.2691-2.2013 3.4039-4.9785 3.4039-8.3313l-0.0506-21.437h-5.842v12.243c0 1.7611-0.44031 3.1329-1.3208 4.115-0.88053 0.98213-2.0489 1.4733-3.5052 1.4733-1.4224 0-2.574-0.49116-3.4546-1.4733-0.88053-0.98213-1.3208-2.3539-1.3208-4.115v-12.243zm-76.552 5.4865c1.6595 0 3.0653 0.57556 4.2168 1.727 1.1515 1.1515 1.727 2.5573 1.727 4.2168 0 1.6595-0.57556 3.0648-1.727 4.2163-1.1515 1.1515-2.5573 1.727-4.2168 1.727-1.6595 0-3.0648-0.57556-4.2163-1.727-1.1515-1.1515-1.727-2.5568-1.727-4.2163 0-1.6595 0.57556-3.0653 1.727-4.2168 1.1515-1.1515 2.5568-1.727 4.2163-1.727z" fill="#2e3440" style="font-variant-caps:normal;font-variant-east-asian:normal;font-variant-ligatures:normal;font-variant-numeric:normal"/>
<path d="m94.636 30.013-10.536 18.371c-0.79899 1.1177-1.2128 2.4201-1.2128 3.8158v0.03122c0.0725 2.03 0.79372 3.7998 2.1368 5.1428 1.3431 1.3431 3.0986 2.0391 5.0762 2.0391h25.398c1.9776 0 3.7331-0.69604 5.0762-2.0391 1.3431-1.3431 2.0643-3.1128 2.1368-5.1428v-0.03122c0-1.3957-0.41386-2.6981-1.2128-3.8158l-10.536-18.371-5.7917 1.8898 11.301 19.594 0.0408 0.05117c0.1244 0.1555 0.20928 0.36647 0.20929 0.75189 0 0.31353-0.0823 0.51792-0.34365 0.77928-0.25771 0.25773-0.54094 0.39193-0.95912 0.44132h-25.238c-0.41818-0.04942-0.7014-0.18362-0.95911-0.44132-0.2444-0.2444-0.34365-0.47538-0.34365-0.87902 0-0.29874 0.06685-0.47474 0.20877-0.65214l0.04134-0.05117 11.301-19.594z" color="#000000" color-rendering="auto" dominant-baseline="auto" fill="#8fbcbb" image-rendering="auto" shape-rendering="auto" solid-color="#000000" stop-color="#000000" style="font-feature-settings:normal;font-variant-alternates:normal;font-variant-caps:normal;font-variant-east-asian:normal;font-variant-ligatures:normal;font-variant-numeric:normal;font-variant-position:normal;font-variation-settings:normal;inline-size:0;isolation:auto;mix-blend-mode:normal;shape-margin:0;shape-padding:0;text-decoration-color:#000000;text-decoration-line:none;text-decoration-style:solid;text-indent:0;text-orientation:mixed;text-transform:none;white-space:normal"/>
<path d="m185.78 0v31.902h5.842v-31.902zm31.175 0v20.777c0 3.2173 1.1516 5.9777 3.4546 8.2806 2.3029 2.3029 5.0633 3.4546 8.2806 3.4546 3.2512 0 6.0111-1.1349 8.2801-3.4039 2.2691-2.3029 3.4034-5.0801 3.4034-8.3313s-1.1003-6.011-3.3016-8.2801c-2.1675-2.3029-4.8261-3.4546-7.9757-3.4546-2.3707 0-4.4533 0.79572-6.2482 2.3875v-11.43zm-15.513 9.5503v5.2322c1.4901 0 2.6753 0.45761 3.5558 1.372 0.9144 0.88053 1.3715 2.1842 1.3715 3.9114v1.8149c-0.1275-0.15124-0.2621-0.29932-0.40617-0.44338-1.2531-1.2531-2.7601-1.8795-4.5212-1.8795s-3.2681 0.6264-4.5212 1.8795c-1.2531 1.2531-1.88 2.7774-1.88 4.5723 0 1.7611 0.62691 3.2681 1.88 4.5212 1.253 1.2531 2.7601 1.8795 4.5212 1.8795s3.2681-0.6264 4.5212-1.8795c0.14405-0.14405 0.35501-0.51832 0.35501-0.51832l5.7919 1.8898v-12.548c0-2.7432-0.98232-5.0632-2.9466-6.9598-1.9304-1.8965-4.5042-2.8448-7.7215-2.8448zm27.248 5.4865c1.6595 0 3.0648 0.57556 4.2163 1.727 1.1515 1.1515 1.727 2.5573 1.727 4.2168 0 1.6595-0.57556 3.0648-1.727 4.2163-1.1515 1.1515-2.5568 1.727-4.2163 1.727-1.6256 0-3.0315-0.57556-4.2168-1.727-1.1515-1.1515-1.727-2.5568-1.727-4.2163 0-1.6595 0.57556-3.0653 1.727-4.2168 1.1853-1.1515 2.5912-1.727 4.2168-1.727z" fill="#2e3440" style="font-variant-caps:normal;font-variant-east-asian:normal;font-variant-ligatures:normal;font-variant-numeric:normal"/>
<path d="m175.96 14.3c-1.7611 0-3.2681 0.6264-4.5212 1.8795-1.2531 1.2531-1.8795 2.7774-1.8795 4.5723 0 1.7611 0.62641 3.2681 1.8795 4.5212 1.2531 1.2531 2.7601 1.8795 4.5212 1.8795 1.7611 0 3.2681-0.6264 4.5212-1.8795 1.2531-1.2531 1.88-2.7601 1.88-4.5212 0-1.7949-0.62692-3.3193-1.88-4.5723-1.2531-1.2531-2.7601-1.8795-4.5212-1.8795z" fill="#8fbcbb" style="font-variant-caps:normal;font-variant-east-asian:normal;font-variant-ligatures:normal;font-variant-numeric:normal"/>
</g>
</svg>
