<?xml version="1.0" encoding="UTF-8"?>
<svg width="39.824mm" height="49.862mm" version="1.1" viewBox="0 0 39.824 49.862" xmlns="http://www.w3.org/2000/svg" xmlns:cc="http://creativecommons.org/ns#" xmlns:dc="http://purl.org/dc/elements/1.1/" xmlns:rdf="http://www.w3.org/1999/02/22-rdf-syntax-ns#">
<metadata>
<rdf:RDF>
<cc:Work rdf:about="">
<dc:format>image/svg+xml</dc:format>
<dc:type rdf:resource="http://purl.org/dc/dcmitype/StillImage"/>
<dc:title/>
</cc:Work>
</rdf:RDF>
</metadata>
<g transform="translate(-128.59 -80.069)">
<text fill="#000000" font-family="sans-serif" font-size="10.583px" style="line-height:1.25;shape-inside:url(#rect839);white-space:pre" xml:space="preserve"/>
<text fill="#000000" font-family="sans-serif" font-size="10.583px" style="line-height:1.25;shape-inside:url(#rect935);white-space:pre" xml:space="preserve"/>
<path d="m135.46 80.069v5.2322c0.1859 2.6e-5 0.36722 0.0074 0.54364 0.0217 1.7e-4 1.3e-5 2.7e-4 -1.4e-5 5.3e-4 0 0.17657 0.01429 0.34814 0.03551 0.51522 0.06408 2.6e-4 5.6e-5 7.9e-4 -5.5e-5 1e-3 0 0.16688 0.02857 0.3294 0.06469 0.4868 0.10749 1.6e-4 4.2e-5 2.6e-4 -4.2e-5 5.3e-4 0 0.15754 0.04286 0.30981 0.09275 0.45785 0.14986 0.14833 0.0572 0.29168 0.12175 0.43046 0.19327 1.4e-4 7.2e-5 2.7e-4 -7.1e-5 5.3e-4 0 0.13853 0.07141 0.272 0.14998 0.40101 0.23565 1.3e-4 8.2e-5 2.7e-4 -8.2e-5 5.3e-4 0 0.12901 0.08568 0.25309 0.1786 0.37259 0.27854 1.1e-4 9e-5 5.3e-4 -8.7e-5 5.3e-4 0 0.11949 0.09996 0.23418 0.20722 0.34416 0.32143 9e-5 9e-5 5.3e-4 -9.3e-5 5.3e-4 0 0.9144 0.88053 1.3715 2.1842 1.3715 3.9114v1.8149c-0.0166-0.01966-0.0343-0.03883-0.0512-0.0584v8.1902h4.1e-4l5.7903 1.8893v-12.547c0-0.3429-0.0148-0.67905-0.045-1.0087-0.21488-2.3077-1.1819-4.2916-2.9006-5.9511-1.4478-1.4224-3.2575-2.3114-5.4291-2.667-0.18064-0.02958-0.36419-0.05532-0.54984-0.07751-2.6e-4 -4.3e-5 -7.9e-4 3.9e-5 -1e-3 0-0.37216-0.04447-0.75441-0.07408-1.1467-0.08888-0.19585-0.0074-0.39407-0.01135-0.5948-0.01138zm26.079 0c-0.40216 0-0.79409 0.01482-1.1762 0.04444-0.38189 0.02958-0.75382 0.07422-1.1162 0.13332-2.1717 0.3556-3.9813 1.2446-5.4291 2.667-1.7187 1.6595-2.6857 3.6433-2.9006 5.9511-0.0302 0.32968-0.045 0.66582-0.045 1.0087v12.547l5.7903-1.8893h5.3e-4v-8.1902c-0.0168 0.01955-0.0346 0.03872-0.0512 0.0584v-1.8149c0-1.7272 0.45709-3.0309 1.3715-3.9114 9e-5 -9.3e-5 5.3e-4 9e-5 5.3e-4 0 0.10999-0.1142 0.22468-0.22148 0.34417-0.32143 0.23909-0.19995 0.49745-0.3713 0.77463-0.51418 0.69316-0.35731 1.5052-0.5364 2.4365-0.5364z" fill="#2e3440" style="font-variant-caps:normal;font-variant-east-asian:normal;font-variant-ligatures:normal;font-variant-numeric:normal"/>
<path d="m156.66 100.53 10.536 18.371c0.79899 1.1177 1.2128 2.4201 1.2128 3.8158v0.0312c-0.0725 2.03-0.79373 3.7998-2.1368 5.1428-1.3431 1.3431-3.0986 2.0391-5.0762 2.0391h-25.398c-1.9776 0-3.7331-0.69604-5.0762-2.0391-1.3431-1.3431-2.0643-3.1128-2.1368-5.1428v-0.0312c0-1.3957 0.41386-2.6981 1.2128-3.8158l10.536-18.371 5.7917 1.8898-11.301 19.594-0.0408 0.0512c-0.1244 0.1555-0.20928 0.36648-0.20929 0.7519 0 0.31353 0.0823 0.51792 0.34365 0.77927 0.25771 0.25773 0.54094 0.39193 0.95912 0.44133h25.238c0.41818-0.0494 0.70139-0.18362 0.95911-0.44133 0.2444-0.24439 0.34365-0.47537 0.34365-0.87902 0-0.29874-0.0669-0.47474-0.20877-0.65215l-0.0413-0.0512-11.301-19.594z" color="#000000" color-rendering="auto" dominant-baseline="auto" fill="#8fbcbb" image-rendering="auto" shape-rendering="auto" solid-color="#000000" stop-color="#000000" style="font-feature-settings:normal;font-variant-alternates:normal;font-variant-caps:normal;font-variant-east-asian:normal;font-variant-ligatures:normal;font-variant-numeric:normal;font-variant-position:normal;font-variation-settings:normal;inline-size:0;isolation:auto;mix-blend-mode:normal;shape-margin:0;shape-padding:0;text-decoration-color:#000000;text-decoration-line:none;text-decoration-style:solid;text-indent:0;text-orientation:mixed;text-transform:none;white-space:normal"/>
</g>
</svg>
