<?xml version="1.0" encoding="UTF-8"?>
<svg width="233.13mm" height="49.863mm" version="1.1" viewBox="0 0 233.13 49.863" xmlns="http://www.w3.org/2000/svg" xmlns:cc="http://creativecommons.org/ns#" xmlns:dc="http://purl.org/dc/elements/1.1/" xmlns:rdf="http://www.w3.org/1999/02/22-rdf-syntax-ns#">
<metadata>
<rdf:RDF>
<cc:Work rdf:about="">
<dc:format>image/svg+xml</dc:format>
<dc:type rdf:resource="http://purl.org/dc/dcmitype/StillImage"/>
<dc:title/>
</cc:Work>
</rdf:RDF>
</metadata>
<g transform="translate(-31.935 -160.14)">
<text fill="#000000" font-family="sans-serif" font-size="10.583px" style="line-height:1.25;shape-inside:url(#rect839);white-space:pre" xml:space="preserve"/>
<text fill="#000000" font-family="sans-serif" font-size="10.583px" style="line-height:1.25;shape-inside:url(#rect935);white-space:pre" xml:space="preserve"/>
<path d="m232.11 160.14v5.2322c0.1859 3e-5 0.36722 7e-3 0.54364 0.0217 1.7e-4 1e-5 2.7e-4 -2e-5 5.3e-4 0 0.17657 0.0143 0.34814 0.0355 0.51522 0.0641 2.6e-4 5e-5 7.9e-4 -6e-5 1e-3 0 0.16688 0.0286 0.3294 0.0647 0.4868 0.10748 1.6e-4 5e-5 2.6e-4 -4e-5 5.3e-4 0 0.15754 0.0429 0.30981 0.0927 0.45785 0.14987 0.14833 0.0572 0.29168 0.12174 0.43046 0.19326 1.4e-4 8e-5 2.7e-4 -7e-5 5.3e-4 0 0.13853 0.0714 0.272 0.14999 0.40101 0.23565 1.3e-4 8e-5 2.7e-4 -8e-5 5.3e-4 0 0.12901 0.0857 0.25309 0.1786 0.37259 0.27853 1.1e-4 9e-5 5.3e-4 -8e-5 5.3e-4 0 0.11949 0.1 0.23418 0.20722 0.34416 0.32143 9e-5 9e-5 5.3e-4 -9e-5 5.3e-4 0 0.9144 0.88053 1.3715 2.1842 1.3715 3.9114v1.8149c-0.0166-0.0197-0.0343-0.0388-0.0512-0.0584v8.1902h4.1e-4l5.7903 1.8893v-12.547c0-0.3429-0.0148-0.67904-0.045-1.0087-0.21488-2.3077-1.1819-4.2916-2.9006-5.9511-1.4478-1.4224-3.2575-2.3114-5.4291-2.667-0.18064-0.0296-0.36419-0.0553-0.54984-0.0775-2.6e-4 -4e-5 -7.9e-4 4e-5 -1e-3 0-0.37216-0.0445-0.75441-0.0741-1.1467-0.0889-0.19585-7e-3 -0.39407-0.0114-0.5948-0.0114zm26.079 0c-0.40216 0-0.79409 0.0148-1.1762 0.0444-0.38189 0.0296-0.75382 0.0742-1.1162 0.13332-2.1717 0.3556-3.9813 1.2446-5.4291 2.667-1.7187 1.6595-2.6857 3.6433-2.9006 5.9511-0.0302 0.32967-0.045 0.66582-0.045 1.0087v12.547l5.7903-1.8893h5.3e-4v-8.1902c-0.0168 0.0196-0.0346 0.0387-0.0512 0.0584v-1.8149c0-1.7272 0.45709-3.0309 1.3715-3.9114 9e-5 -9e-5 5.3e-4 9e-5 5.3e-4 0 0.10999-0.11419 0.22468-0.22148 0.34417-0.32143 0.23909-0.19995 0.49745-0.37129 0.77463-0.51418 0.69316-0.3573 1.5052-0.5364 2.4365-0.5364z" fill="#2e3440" style="font-variant-caps:normal;font-variant-east-asian:normal;font-variant-ligatures:normal;font-variant-numeric:normal"/>
<path d="m236.99 180.6-10.536 18.371c-0.79899 1.1177-1.2128 2.4201-1.2128 3.8158v0.0312c0.0725 2.03 0.79372 3.7998 2.1368 5.1428 1.3431 1.3431 3.0986 2.0391 5.0762 2.0391h25.398c1.9776 0 3.7331-0.69604 5.0762-2.0391 1.3431-1.3431 2.0643-3.1128 2.1368-5.1428v-0.0312c0-1.3957-0.41386-2.6981-1.2128-3.8158l-10.536-18.371-5.7917 1.8898 11.301 19.594 0.0408 0.0512c0.1244 0.1555 0.20928 0.36648 0.20929 0.7519 0 0.31353-0.0823 0.51792-0.34365 0.77927-0.25771 0.25773-0.54094 0.39193-0.95912 0.44133h-25.238c-0.41818-0.0494-0.70139-0.18362-0.95911-0.44133-0.2444-0.24439-0.34365-0.47537-0.34365-0.87902 0-0.29874 0.0669-0.47474 0.20877-0.65215l0.0413-0.0512 11.301-19.594z" color="#000000" color-rendering="auto" dominant-baseline="auto" fill="#8fbcbb" image-rendering="auto" shape-rendering="auto" solid-color="#000000" stop-color="#000000" style="font-feature-settings:normal;font-variant-alternates:normal;font-variant-caps:normal;font-variant-east-asian:normal;font-variant-ligatures:normal;font-variant-numeric:normal;font-variant-position:normal;font-variation-settings:normal;inline-size:0;isolation:auto;mix-blend-mode:normal;shape-margin:0;shape-padding:0;text-decoration-color:#000000;text-decoration-line:none;text-decoration-style:solid;text-indent:0;text-orientation:mixed;text-transform:none;white-space:normal"/>
<path d="m49.512 167.33v11.43c-1.8965-1.5917-3.9964-2.3874-6.2994-2.3874-3.1496 0-5.8251 1.1516-8.0264 3.4546-2.1675 2.2691-3.2515 5.0289-3.2515 8.2801 0 3.2173 1.1349 5.9777 3.4039 8.2806 2.3029 2.3029 5.0628 3.4546 8.2801 3.4546 3.2512 0 6.0116-1.1516 8.2806-3.4546 2.3029-2.3029 3.4546-5.0633 3.4546-8.2806v-20.777zm56.533 9.0935c-3.4883 0-6.4174 1.1176-8.7881 3.3528-2.3368 2.2352-3.5052 4.995-3.5052 8.2801 0 3.2851 1.2193 6.0454 3.6577 8.2806s5.4184 3.3528 8.9405 3.3528c4.064 0 7.5692-1.7272 10.516-5.1816l-4.5718-3.0985c-1.6595 2.0997-3.6409 3.1492-5.9438 3.1492-1.8288 0-3.4202-0.62641-4.7749-1.8795-1.3547-1.2869-2.0324-2.828-2.0324-4.623 0-1.7949 0.62692-3.3188 1.88-4.5718 1.2869-1.2869 2.8275-1.9301 4.6225-1.9301 2.3368 0 4.2842 1.1176 5.842 3.3528l4.6736-3.3021c-2.9464-3.4544-6.4516-5.1816-10.516-5.1816zm-40.974 0.45682v5.2322c1.4901 0 2.6753 0.45761 3.5559 1.372 0.9144 0.88053 1.3715 2.1842 1.3715 3.9114v1.8149c-0.1275-0.15124-0.26211-0.29931-0.40618-0.44338-1.2531-1.2531-2.7601-1.8795-4.5212-1.8795-1.7611 0-3.2681 0.62641-4.5212 1.8795-1.2531 1.2531-1.88 2.7774-1.88 4.5723 0 1.7611 0.62693 3.2681 1.88 4.5212 1.2531 1.2531 2.7601 1.8795 4.5212 1.8795 1.7611 0 3.2681-0.62641 4.5212-1.8795 0.14405-0.14406 0.35502-0.5178 0.35502-0.5178l5.7919 1.8893v-12.548c0-2.7432-0.98232-5.0632-2.9466-6.9598-1.9304-1.8965-4.5042-2.8448-7.7215-2.8448zm26.08 0c-3.2173 0-5.8084 0.94826-7.7727 2.8448-1.9304 1.8965-2.8954 4.2166-2.8954 6.9598v12.548l5.7909-1.8898v-9.9467c0-1.7272 0.44032-3.0309 1.3208-3.9114 0.88054-0.9144 2.0662-1.372 3.5564-1.372zm29.019 5.3e-4v13.106c0 2.6416 0.9991 4.9108 2.9972 6.8073 1.9981 1.8965 4.5384 2.8448 7.6202 2.8448 0.88054 0 1.7947-0.20338 2.743-0.60978 0.98214-0.44027 1.6767-0.94821 2.0831-1.5239v0.91415c0.0339 1.7949-0.57576 3.3193-1.8288 4.5723-1.2192 1.2531-2.7262 1.8795-4.5212 1.8795-2.3707 0-4.4029-1.0667-6.0963-3.2003l-4.5212 3.1497c2.8787 3.4544 6.418 5.1816 10.617 5.1816 3.6237 0 6.5702-1.1176 8.8393-3.3528 2.2691-2.2013 3.4034-4.9785 3.4034-8.3313l-0.0506-21.437h-5.842v12.243c0 1.7611-0.44031 3.1323-1.3208 4.1145-0.88053 0.98213-2.0489 1.4733-3.5052 1.4733-1.4224 0-2.574-0.49116-3.4546-1.4733-0.88053-0.98214-1.3208-2.3534-1.3208-4.1145v-12.243zm-76.551 5.486c1.6595 0 3.0653 0.57555 4.2168 1.727 1.1515 1.1515 1.727 2.5573 1.727 4.2168 0 1.6595-0.57557 3.0648-1.727 4.2163-1.1515 1.1515-2.5573 1.727-4.2168 1.727-1.6595 0-3.0648-0.57556-4.2163-1.727-1.1515-1.1515-1.727-2.5568-1.727-4.2163 0-1.6595 0.57556-3.0653 1.727-4.2168 1.1515-1.1515 2.5568-1.727 4.2163-1.727z" fill="#2e3440" style="font-variant-caps:normal;font-variant-east-asian:normal;font-variant-ligatures:normal;font-variant-numeric:normal"/>
<path d="m161.1 167.33v31.902h5.842v-31.902zm31.175 0v20.777c0 3.2173 1.1516 5.9777 3.4546 8.2806 2.3029 2.3029 5.0633 3.4546 8.2806 3.4546 3.2512 0 6.0111-1.1349 8.2801-3.4039 2.2691-2.3029 3.4034-5.0801 3.4034-8.3313s-1.1003-6.011-3.3016-8.2801c-2.1675-2.3029-4.8261-3.4546-7.9757-3.4546-2.3707 0-4.4533 0.79572-6.2482 2.3874v-11.43zm-15.513 9.5503v5.2322c1.4901 0 2.6753 0.45761 3.5558 1.372 0.9144 0.88053 1.3715 2.1842 1.3715 3.9114v1.8149c-0.1275-0.15123-0.26211-0.29931-0.40617-0.44338-1.2531-1.2531-2.7601-1.8795-4.5212-1.8795-1.7611 0-3.2681 0.6264-4.5212 1.8795-1.2531 1.2531-1.88 2.7774-1.88 4.5723 0 1.7611 0.62691 3.2681 1.88 4.5212 1.2531 1.2531 2.7601 1.8795 4.5212 1.8795 1.7611 0 3.2681-0.6264 4.5212-1.8795 0.14405-0.14405 0.35501-0.5178 0.35501-0.5178l5.7919 1.8893v-12.548c0-2.7432-0.98232-5.0632-2.9466-6.9598-1.9304-1.8965-4.5042-2.8448-7.7215-2.8448zm27.248 5.4865c1.6595 0 3.0648 0.57556 4.2163 1.727 1.1515 1.1515 1.727 2.5573 1.727 4.2168s-0.57556 3.0648-1.727 4.2163-2.5568 1.727-4.2163 1.727c-1.6256 0-3.0315-0.57556-4.2168-1.727-1.1515-1.1515-1.727-2.5568-1.727-4.2163s0.57556-3.0653 1.727-4.2168c1.1853-1.1515 2.5912-1.727 4.2168-1.727z" fill="#2e3440" style="font-variant-caps:normal;font-variant-east-asian:normal;font-variant-ligatures:normal;font-variant-numeric:normal"/>
<path d="m151.28 181.63c-1.7611 0-3.2681 0.6264-4.5212 1.8795-1.2531 1.2531-1.8795 2.7774-1.8795 4.5723 0 1.7611 0.62641 3.2681 1.8795 4.5212 1.2531 1.2531 2.7601 1.8795 4.5212 1.8795 1.7611 0 3.2681-0.6264 4.5212-1.8795 1.2531-1.2531 1.88-2.7601 1.88-4.5212 0-1.7949-0.62692-3.3193-1.88-4.5723-1.2531-1.2531-2.7601-1.8795-4.5212-1.8795z" fill="#8fbcbb" style="font-variant-caps:normal;font-variant-east-asian:normal;font-variant-ligatures:normal;font-variant-numeric:normal"/>
</g>
</svg>
